<svg xmlns="http://www.w3.org/2000/svg" xmlns:svg="http://www.w3.org/2000/svg" xmlns:xlink="http://www.w3.org/1999/xlink" version="1.0" height="499.9999999999999pt" width="650pt" viewBox="415 97 658 505.9999999999999" ><defs><style type="text/css">
            @font-face {
                font-family: 'lt_regular';
                src: url('https://app.creately.com/diagram/assets/fonts/lato/lt-regular-webfont.woff2') format('woff2'),
                    url('https://app.creately.com/diagram/assets/fonts/lato/lt-regular-webfont.woff') format('woff');
                font-weight: normal;
                font-style: normal;
            }
            @font-face {
                font-family: 'noto_regular';
                src: url('https://app.creately.com/diagram/assets/fonts/noto/noto-regular.woff') format('woff'),
                     url('https://app.creately.com/diagram/assets/fonts/noto/noto-regular.woff2') format('woff2');
                font-weight: normal;
                font-style: normal;
            }
        p {
            margin: 0;
        }
        </style></defs><defs><style>
            span{ display: inline-block; }
        </style></defs><g id="GZbUdJY9XvB"><g transform="translate(420 100)"><rect x="0" y="0" width="100" height="29" fill="rgb(112,12,43)" stroke="#700C2B" stroke-width="2" stroke-linecap="round" stroke-linejoin="round" stroke-dasharray="0 0"/><path d="M 50,29 L 50,499.9999999999999" fill="rgb(112,12,43)" stroke="#700C2B" stroke-width="2" stroke-linecap="round" stroke-linejoin="round" stroke-dasharray="3 3"/><rect x="0" y="0" width="100" height="499.9999999999999" fill="rgba(255,255,255,0.01)" stroke="rgba(255,255,255,0.01)" stroke-width="2" stroke-linecap="round" stroke-linejoin="round" stroke-dasharray="3 3"/></g><g transform="translate(441.5, 105) rotate(0, 28.5, 0)" width="57" height="19"><text text-decoration="none" x="0" fill="#ffffff" font-size="10pt" font-family="lt_regular"  y="15">Customer</text><text text-decoration="none" x="57" fill="#4b4b4b" font-size="10pt" font-family="noto_regular"  y="15"></text></g></g><g id="g5UhtwXc8eE"><g transform="translate(600 100)"><rect x="0" y="0" width="100" height="29" fill="rgb(112,12,43)" stroke="#700C2B" stroke-width="2" stroke-linecap="round" stroke-linejoin="round" stroke-dasharray="0 0"/><path d="M 50,29 L 50,499.9999999999999" fill="rgb(112,12,43)" stroke="#700C2B" stroke-width="2" stroke-linecap="round" stroke-linejoin="round" stroke-dasharray="3 3"/><rect x="0" y="0" width="100" height="499.9999999999999" fill="rgba(255,255,255,0.01)" stroke="rgba(255,255,255,0.01)" stroke-width="2" stroke-linecap="round" stroke-linejoin="round" stroke-dasharray="3 3"/></g><g transform="translate(633, 105) rotate(0, 17, 0)" width="34" height="19"><text text-decoration="none" x="0.5" fill="#ffffff" font-size="10pt" font-family="lt_regular"  y="15">Room</text><text text-decoration="none" x="33.5" fill="#4b4b4b" font-size="10pt" font-family="noto_regular"  y="15"></text></g></g><g id="hDvIx3Gh45C"><g transform="translate(790 100)"><rect x="0" y="0" width="100" height="29" fill="rgb(112,12,43)" stroke="#700C2B" stroke-width="2" stroke-linecap="round" stroke-linejoin="round" stroke-dasharray="0 0"/><path d="M 50,29 L 50,499.9999999999999" fill="rgb(112,12,43)" stroke="#700C2B" stroke-width="2" stroke-linecap="round" stroke-linejoin="round" stroke-dasharray="3 3"/><rect x="0" y="0" width="100" height="499.9999999999999" fill="rgba(255,255,255,0.01)" stroke="rgba(255,255,255,0.01)" stroke-width="2" stroke-linecap="round" stroke-linejoin="round" stroke-dasharray="3 3"/></g><g transform="translate(796, 105) rotate(0, 44, 0)" width="88" height="19"><text text-decoration="none" x="1.5" fill="#ffffff" font-size="10pt" font-family="lt_regular"  y="15">Adminidtration</text><text text-decoration="none" x="86.5" fill="#4b4b4b" font-size="10pt" font-family="noto_regular"  y="15"></text></g></g><g id="mWCMcBecTU7"><g transform="translate(970 100)"><rect x="0" y="0" width="100" height="29" fill="rgb(112,12,43)" stroke="#700C2B" stroke-width="2" stroke-linecap="round" stroke-linejoin="round" stroke-dasharray="0 0"/><path d="M 50,29 L 50,499.9999999999999" fill="rgb(112,12,43)" stroke="#700C2B" stroke-width="2" stroke-linecap="round" stroke-linejoin="round" stroke-dasharray="3 3"/><rect x="0" y="0" width="100" height="499.9999999999999" fill="rgba(255,255,255,0.01)" stroke="rgba(255,255,255,0.01)" stroke-width="2" stroke-linecap="round" stroke-linejoin="round" stroke-dasharray="3 3"/></g><g transform="translate(986.5, 105) rotate(0, 33.5, 0)" width="67" height="19"><text text-decoration="none" x="0.5" fill="#ffffff" font-size="10pt" font-family="lt_regular"  y="15">Transaction</text><text text-decoration="none" x="66.5" fill="#4b4b4b" font-size="10pt" font-family="noto_regular"  y="15"></text></g></g><g id="SNZyMG2kWAN"><g transform="translate(460 140)"><rect x="0" y="0" width="20" height="440" fill="rgb(141,161,59)" stroke="#8DA13B" stroke-width="2" stroke-linecap="round" stroke-linejoin="round" stroke-dasharray="0 0"/></g><g transform="translate(470, 351) rotate(0, 0, 9)" width="0" height="18"><text text-decoration="none" x="0" fill="#4b4b4b" font-size="10pt" font-family="noto_regular"  y="15"></text></g></g><g id="QcgkWmfoZ47"><g transform="translate(640 140)"><rect x="0" y="0" width="20" height="250" fill="rgb(141,161,59)" stroke="#8DA13B" stroke-width="2" stroke-linecap="round" stroke-linejoin="round" stroke-dasharray="0 0"/></g><g transform="translate(650, 256) rotate(0, 0, 9)" width="0" height="18"><text text-decoration="none" x="0" fill="#4b4b4b" font-size="10pt" font-family="noto_regular"  y="15"></text></g></g><g id="dU839UMlC5J"><g transform="translate(830 370)"><rect x="0" y="0" width="20" height="80" fill="rgb(141,161,59)" stroke="#8DA13B" stroke-width="2" stroke-linecap="round" stroke-linejoin="round" stroke-dasharray="0 0"/></g></g><g id="MLo1cgqS2hx"><g transform="translate(830 530)"><rect x="0" y="0" width="20" height="60" fill="rgb(141,161,59)" stroke="#8DA13B" stroke-width="2" stroke-linecap="round" stroke-linejoin="round" stroke-dasharray="0 0"/></g><g transform="translate(840, 551) rotate(0, 0, 9)" width="0" height="18"><text text-decoration="none" x="0" fill="#4b4b4b" font-size="10pt" font-family="noto_regular"  y="15"></text></g></g><g id="cf69dwdnjfd"><g transform="translate(1010 440)"><rect x="0" y="0" width="20" height="60" fill="rgb(141,161,59)" stroke="#8DA13B" stroke-width="2" stroke-linecap="round" stroke-linejoin="round" stroke-dasharray="0 0"/></g></g><g id="TXcFJtEo8CA"><mask id="e440b" x="466" y="136" width="188" height="28" maskUnits="userSpaceOnUse"><rect x="466" y="136" width="188" height="28" fill="white" /><rect x="515" y="137.5" width="90" height="25" fill="black" /></mask><g mask="url(#e440b)"><path d="M 480,150 L 640,150" fill="none" stroke="#9A9A9A" stroke-width="2" stroke-linecap="round" stroke-linejoin="round"/><path d="M 640,150 L 633.0434782608696,143.50282485875707 M 640,150 L 633.0434782608696,156.49717514124293 Z" fill="rgb(255,255,255)" stroke="#9A9A9A" stroke-width="2" stroke-linecap="round" stroke-linejoin="round"/></g><g transform="translate(518, 140.5)" width="84" height="19"><text text-decoration="none" x="0.5" fill="rgb(84, 84, 84)" font-size="10pt" font-family="lt_regular"  y="15">Request&#160;</text><text text-decoration="none" x="50.5" fill="rgb(84, 84, 84)" font-size="10pt" font-family="lt_regular"  y="15">Room</text><text text-decoration="none" x="83.5" fill="#4b4b4b" font-size="10pt" font-family="noto_regular"  y="15"></text></g></g><g id="QRDG1AUt6e9"><mask id="0a7c5" x="466" y="176" width="188" height="28" maskUnits="userSpaceOnUse"><rect x="466" y="176" width="188" height="28" fill="white" /><rect x="525.5" y="177.5" width="69" height="25" fill="black" /></mask><g mask="url(#0a7c5)"><path d="M 640,190 L 480,190" fill="none" stroke="#9A9A9A" stroke-width="2" stroke-linecap="round" stroke-linejoin="round" stroke-dasharray="3 3"/><path d="M 480,190 L 486.95652173913044,196.49717514124293 M 480,190 L 486.95652173913044,183.50282485875707 Z" fill="rgb(255,255,255)" stroke="#9A9A9A" stroke-width="2" stroke-linecap="round" stroke-linejoin="round"/></g><g transform="translate(528.5, 180.5)" width="63" height="19"><text text-decoration="none" x="0" fill="rgb(84, 84, 84)" font-size="10pt" font-family="lt_regular"  y="15">Return&#160;</text><text text-decoration="none" x="42" fill="rgb(84, 84, 84)" font-size="10pt" font-family="lt_regular"  y="15">List</text><text text-decoration="none" x="63" fill="#4b4b4b" font-size="10pt" font-family="noto_regular"  y="15"></text></g></g><g id="YHevY0O6dHX"><mask id="6733f" x="466" y="236" width="188" height="28" maskUnits="userSpaceOnUse"><rect x="466" y="236" width="188" height="28" fill="white" /><rect x="487" y="237.5" width="146" height="25" fill="black" /></mask><g mask="url(#6733f)"><path d="M 480,250 L 640,250" fill="none" stroke="#9A9A9A" stroke-width="2" stroke-linecap="round" stroke-linejoin="round"/><path d="M 640,250 L 633.0434782608696,243.50282485875707 M 640,250 L 633.0434782608696,256.49717514124296 Z" fill="rgb(255,255,255)" stroke="#9A9A9A" stroke-width="2" stroke-linecap="round" stroke-linejoin="round"/></g><g transform="translate(490, 240.5)" width="140" height="19"><text text-decoration="none" x="1.5" fill="rgb(84, 84, 84)" font-size="10pt" font-family="lt_regular"  y="15">Check&#160;</text><text text-decoration="none" x="40.5" fill="rgb(84, 84, 84)" font-size="10pt" font-family="lt_regular"  y="15">Room&#160;</text><text text-decoration="none" x="76.5" fill="rgb(84, 84, 84)" font-size="10pt" font-family="lt_regular"  y="15">Availability</text><text text-decoration="none" x="138.5" fill="#4b4b4b" font-size="10pt" font-family="noto_regular"  y="15"></text></g></g><g id="ahZIJLyQ8i4"><mask id="b20ca" x="466" y="276" width="188" height="28" maskUnits="userSpaceOnUse"><rect x="466" y="276" width="188" height="28" fill="white" /><rect x="518" y="277.5" width="84" height="25" fill="black" /></mask><g mask="url(#b20ca)"><path d="M 640,290 L 480,290" fill="none" stroke="#9A9A9A" stroke-width="2" stroke-linecap="round" stroke-linejoin="round" stroke-dasharray="3 3"/><path d="M 480,290 L 486.95652173913044,296.49717514124296 M 480,290 L 486.95652173913044,283.50282485875704 Z" fill="rgb(255,255,255)" stroke="#9A9A9A" stroke-width="2" stroke-linecap="round" stroke-linejoin="round"/></g><g transform="translate(521, 280.5)" width="78" height="19"><text text-decoration="none" x="0" fill="rgb(84, 84, 84)" font-size="10pt" font-family="lt_regular"  y="15">Return&#160;</text><text text-decoration="none" x="42" fill="rgb(84, 84, 84)" font-size="10pt" font-family="lt_regular"  y="15">Status</text><text text-decoration="none" x="78" fill="#4b4b4b" font-size="10pt" font-family="noto_regular"  y="15"></text></g></g><g id="5yVVlcV01Ha"><mask id="a0f83" x="466" y="336" width="188" height="28" maskUnits="userSpaceOnUse"><rect x="466" y="336" width="188" height="28" fill="white" /><rect x="514.5" y="337.5" width="91" height="25" fill="black" /></mask><g mask="url(#a0f83)"><path d="M 480,350 L 640,350" fill="none" stroke="#9A9A9A" stroke-width="2" stroke-linecap="round" stroke-linejoin="round"/><path d="M 640,350 L 633.0434782608696,343.50282485875704 M 640,350 L 633.0434782608696,356.49717514124296 Z" fill="rgb(255,255,255)" stroke="#9A9A9A" stroke-width="2" stroke-linecap="round" stroke-linejoin="round"/></g><g transform="translate(517.5, 340.5)" width="85" height="19"><text text-decoration="none" x="1.5" fill="rgb(84, 84, 84)" font-size="10pt" font-family="lt_regular"  y="15">Booking&#160;</text><text text-decoration="none" x="50.5" fill="rgb(84, 84, 84)" font-size="10pt" font-family="lt_regular"  y="15">Room</text><text text-decoration="none" x="83.5" fill="#4b4b4b" font-size="10pt" font-family="noto_regular"  y="15"></text></g></g><g id="1EoAbsYQdOZ"><mask id="d3bd2" x="646" y="366" width="198" height="28" maskUnits="userSpaceOnUse"><rect x="646" y="366" width="198" height="28" fill="white" /><rect x="666.5" y="367.5" width="157" height="25" fill="black" /></mask><g mask="url(#d3bd2)"><path d="M 660,380 L 830,380" fill="none" stroke="#9A9A9A" stroke-width="2" stroke-linecap="round" stroke-linejoin="round"/><path d="M 830,380 L 821.304347826087,374.25 L 821.304347826087,385.75 Z" fill="rgb(154,154,154)" stroke="#9A9A9A" stroke-width="2" stroke-linecap="round" stroke-linejoin="round"/></g><g transform="translate(669.5, 370.5)" width="151" height="19"><text text-decoration="none" x="2" fill="rgb(84, 84, 84)" font-size="10pt" font-family="lt_regular"  y="15">Send&#160;</text><text text-decoration="none" x="33" fill="rgb(84, 84, 84)" font-size="10pt" font-family="lt_regular"  y="15">Booking&#160;</text><text text-decoration="none" x="82" fill="rgb(84, 84, 84)" font-size="10pt" font-family="lt_regular"  y="15">Information</text><text text-decoration="none" x="149" fill="#4b4b4b" font-size="10pt" font-family="noto_regular"  y="15"></text></g></g><g id="PLLyMMkm6qh"><mask id="3d7eb" x="466" y="396" width="378" height="38" maskUnits="userSpaceOnUse"><rect x="466" y="396" width="378" height="38" fill="white" /><rect x="583.5" y="402.5" width="143" height="25" fill="black" /></mask><g mask="url(#3d7eb)"><path d="M 830,420 L 665,420 Q 660,420 655,415 Q 650,410 645,410 L 480,410" fill="none" stroke="#9A9A9A" stroke-width="2" stroke-linecap="round" stroke-linejoin="round" stroke-dasharray="3 3"/><path d="M 480,410 L 486.95652173913044,416.49717514124296 M 480,410 L 486.95652173913044,403.50282485875704 Z" fill="rgb(255,255,255)" stroke="#9A9A9A" stroke-width="2" stroke-linecap="round" stroke-linejoin="round"/></g><g transform="translate(586.5, 405.5)" width="137" height="19"><text text-decoration="none" x="1.5" fill="rgb(84, 84, 84)" font-size="10pt" font-family="lt_regular"  y="15">Confirm&#160;</text><text text-decoration="none" x="50.5" fill="rgb(84, 84, 84)" font-size="10pt" font-family="lt_regular"  y="15">Booking&#160;</text><text text-decoration="none" x="99.5" fill="rgb(84, 84, 84)" font-size="10pt" font-family="lt_regular"  y="15">Status</text><text text-decoration="none" x="135.5" fill="#4b4b4b" font-size="10pt" font-family="noto_regular"  y="15"></text></g></g><g id="mkmjef4DraV"><mask id="3a7e0" x="466" y="456" width="558" height="28" maskUnits="userSpaceOnUse"><rect x="466" y="456" width="558" height="28" fill="white" /><rect x="696.5" y="457.5" width="97" height="25" fill="black" /></mask><g mask="url(#3a7e0)"><path d="M 480,470 L 1010,470" fill="none" stroke="#9A9A9A" stroke-width="2" stroke-linecap="round" stroke-linejoin="round"/><path d="M 1010,470 L 1003.0434782608696,463.50282485875704 M 1010,470 L 1003.0434782608696,476.49717514124296 Z" fill="rgb(255,255,255)" stroke="#9A9A9A" stroke-width="2" stroke-linecap="round" stroke-linejoin="round"/></g><g transform="translate(699.5, 460.5)" width="91" height="19"><text text-decoration="none" x="21" fill="rgb(84, 84, 84)" font-size="10pt" font-family="lt_regular"  y="14">Transfer&#160;</text><text text-decoration="none" x="25.5" fill="rgb(84, 84, 84)" font-size="10pt" font-family="lt_regular"  y="33">Money</text><text text-decoration="none" x="65.5" fill="#4b4b4b" font-size="10pt" font-family="noto_regular"  y="33"></text></g></g><g id="gRVlbgATFD1"><mask id="8fb60" x="466" y="476" width="558" height="28" maskUnits="userSpaceOnUse"><rect x="466" y="476" width="558" height="28" fill="white" /><rect x="674.5" y="477.5" width="141" height="25" fill="black" /></mask><g mask="url(#8fb60)"><path d="M 1010,490 L 480,490" fill="none" stroke="#9A9A9A" stroke-width="2" stroke-linecap="round" stroke-linejoin="round" stroke-dasharray="3 3"/><path d="M 480,490 L 486.95652173913044,496.49717514124296 M 480,490 L 486.95652173913044,483.50282485875704 Z" fill="rgb(255,255,255)" stroke="#9A9A9A" stroke-width="2" stroke-linecap="round" stroke-linejoin="round"/></g><g transform="translate(677.5, 480.5)" width="135" height="19"><text text-decoration="none" x="0.5" fill="rgb(84, 84, 84)" font-size="10pt" font-family="lt_regular"  y="15">Return&#160;</text><text text-decoration="none" x="42.5" fill="rgb(84, 84, 84)" font-size="10pt" font-family="lt_regular"  y="15">Transaction&#160;</text><text text-decoration="none" x="111.5" fill="rgb(84, 84, 84)" font-size="10pt" font-family="lt_regular"  y="15">Info</text><text text-decoration="none" x="134.5" fill="#4b4b4b" font-size="10pt" font-family="noto_regular"  y="15"></text></g></g><g id="B1eq8Xhpkql"><mask id="e423a" x="466" y="516" width="378" height="38" maskUnits="userSpaceOnUse"><rect x="466" y="516" width="378" height="38" fill="white" /><rect x="580.5" y="522.5" width="149" height="25" fill="black" /></mask><g mask="url(#e423a)"><path d="M 480,530 L 645,530 Q 650,530 655,535 Q 660,540 665,540 L 830,540" fill="none" stroke="#9A9A9A" stroke-width="2" stroke-linecap="round" stroke-linejoin="round"/><path d="M 830,540 L 821.304347826087,534.25 L 821.304347826087,545.75 Z" fill="rgb(154,154,154)" stroke="#9A9A9A" stroke-width="2" stroke-linecap="round" stroke-linejoin="round"/></g><g transform="translate(583.5, 525.5)" width="143" height="19"><text text-decoration="none" x="1.5" fill="rgb(84, 84, 84)" font-size="10pt" font-family="lt_regular"  y="15">Send&#160;</text><text text-decoration="none" x="32.5" fill="rgb(84, 84, 84)" font-size="10pt" font-family="lt_regular"  y="15">Transaction&#160;</text><text text-decoration="none" x="101.5" fill="rgb(84, 84, 84)" font-size="10pt" font-family="lt_regular"  y="15">Details</text><text text-decoration="none" x="141.5" fill="#4b4b4b" font-size="10pt" font-family="noto_regular"  y="15"></text></g></g><g id="vU39joPt6lI"><mask id="7f404" x="466" y="566" width="378" height="28" maskUnits="userSpaceOnUse"><rect x="466" y="566" width="378" height="28" fill="white" /><rect x="630" y="567.5" width="50" height="25" fill="black" /></mask><g mask="url(#7f404)"><path d="M 830,580 L 480,580" fill="none" stroke="#9A9A9A" stroke-width="2" stroke-linecap="round" stroke-linejoin="round" stroke-dasharray="3 3"/><path d="M 480,580 L 486.95652173913044,586.4971751412429 M 480,580 L 486.95652173913044,573.5028248587571 Z" fill="rgb(255,255,255)" stroke="#9A9A9A" stroke-width="2" stroke-linecap="round" stroke-linejoin="round"/></g><g transform="translate(633, 570.5)" width="44" height="19"><text text-decoration="none" x="0.5" fill="rgb(84, 84, 84)" font-size="10pt" font-family="lt_regular"  y="15">Receipt</text><text text-decoration="none" x="43.5" fill="#4b4b4b" font-size="10pt" font-family="noto_regular"  y="15"></text></g></g></svg>