<svg xmlns="http://www.w3.org/2000/svg" xmlns:svg="http://www.w3.org/2000/svg" xmlns:xlink="http://www.w3.org/1999/xlink" version="1.0" height="1029.999999999999pt" width="965.52pt" viewBox="364.29 77 973.52 1035.999999999999" ><defs><style type="text/css">
            @font-face {
                font-family: 'noto_regular';
                src: url('https://app.creately.com/diagram/assets/fonts/noto/noto-regular.woff') format('woff'),
                     url('https://app.creately.com/diagram/assets/fonts/noto/noto-regular.woff2') format('woff2');
                font-weight: normal;
                font-style: normal;
            }
        p {
            margin: 0;
        }
        </style></defs><defs><style>
            span{ display: inline-block; }
        </style></defs><g id="1xqxdyZnC8U"><g transform="translate(510.00000000000006 80)"><rect x="0" y="0" width="690.0000000000001" height="1029.999999999999" fill="rgb(233,228,232)" stroke="#e9e4e8" stroke-width="2" stroke-linecap="round" stroke-linejoin="round"/></g><g transform="translate(711.6950000000002, 90) rotate(0, 143.305, 0)" width="286.61" height="25.61"><text text-decoration="none" x="2.805000000000007" fill="#606060" font-weight="bold" font-size="14pt" font-family="noto_regular"  y="17">Online&#160;</text><text text-decoration="none" x="62.80500000000001" fill="#606060" font-weight="bold" font-size="14pt" font-family="noto_regular"  y="17">Hotel&#160;</text><text text-decoration="none" x="112.805" fill="#606060" font-weight="bold" font-size="14pt" font-family="noto_regular"  y="17">Reservation&#160;</text><text text-decoration="none" x="219.805" fill="#606060" font-weight="bold" font-size="14pt" font-family="noto_regular"  y="17">System</text><text text-decoration="none" x="283.805" fill="#4b4b4b" font-size="10pt" font-family="noto_regular"  y="17"></text></g></g><g id="yFKvOwHhaTr"><g transform="translate(380 409.99999999999994)"><ellipse cx="20" cy="10" rx="10" ry="10" fill="rgb(77,76,76)" stroke="#4d4c4c" stroke-width="2" stroke-linecap="round" stroke-linejoin="round"/><path d="M 20,20 L 20,48 L 40,80 M 20,48 L 0,80 M 2,30 L 38,30" fill="none" stroke="#4d4c4c" stroke-width="2" stroke-linecap="round" stroke-linejoin="round"/><rect x="0" y="0" width="40" height="80" fill="rgba(255,255,255,0.01)" stroke="rgba(255,255,255,0.01)" stroke-width="2" stroke-linecap="round" stroke-linejoin="round"/></g><g transform="translate(369.29, 499.99999999999994) rotate(0, 30.71, 0)" width="61.42" height="18.4"><text text-decoration="none" x="2.210000000000001" fill="#36abd6" font-weight="bold" font-size="10pt" font-family="noto_regular"  y="15">Customer</text><text text-decoration="none" x="59.21" fill="#4b4b4b" font-size="10pt" font-family="noto_regular"  y="15"></text></g></g><g id="hUbWymRcyir"><g transform="translate(740 170)"><ellipse cx="79.99999999999625" cy="39.999999999998124" rx="79.99999999999625" ry="39.999999999998124" fill="rgb(54,171,214)" stroke="#36ABD6" stroke-width="2" stroke-linecap="round" stroke-linejoin="round"/></g><g transform="translate(763.2349999999963, 200.79999999999814) rotate(0, 56.765, 9.2)" width="113.53" height="18.4"><text text-decoration="none" x="5.265000000000001" fill="#ffffff" font-size="10pt" font-family="noto_regular"  y="15">Create&#160;</text><text text-decoration="none" x="45.265" fill="#ffffff" font-size="10pt" font-family="noto_regular"  y="15">an&#160;</text><text text-decoration="none" x="62.265" fill="#ffffff" font-size="10pt" font-family="noto_regular"  y="15">account</text><text text-decoration="none" x="108.265" fill="#4b4b4b" font-size="10pt" font-family="noto_regular"  y="15"></text></g></g><g id="oOINk7jni57"><g transform="translate(740 260)"><ellipse cx="79.99999999999999" cy="40.000000000000114" rx="79.99999999999999" ry="40.000000000000114" fill="rgb(54,171,214)" stroke="#36ABD6" stroke-width="2" stroke-linecap="round" stroke-linejoin="round"/></g><g transform="translate(757.695, 281.60000000000014) rotate(0, 62.305, 18.4)" width="124.61" height="36.8"><text text-decoration="none" x="5.805" fill="#ffffff" font-size="10pt" font-family="noto_regular"  y="12">Search&#160;</text><text text-decoration="none" x="48.805" fill="#ffffff" font-size="10pt" font-family="noto_regular"  y="12">for&#160;</text><text text-decoration="none" x="67.805" fill="#ffffff" font-size="10pt" font-family="noto_regular"  y="12">hotels&#160;</text><text text-decoration="none" x="105.805" fill="#ffffff" font-size="10pt" font-family="noto_regular"  y="12">in&#160;</text><text text-decoration="none" x="118.805" fill="#ffffff" font-size="10pt" font-family="noto_regular"  y="12"></text><text text-decoration="none" x="18.805" fill="#ffffff" font-size="10pt" font-family="noto_regular"  y="31">preferred&#160;</text><text text-decoration="none" x="73.805" fill="#ffffff" font-size="10pt" font-family="noto_regular"  y="31">areas</text><text text-decoration="none" x="105.805" fill="#4b4b4b" font-size="10pt" font-family="noto_regular"  y="31"></text></g></g><g id="i9AV7d20PrX"><g transform="translate(740 350)"><ellipse cx="79.99999999997392" cy="40.00000000000002" rx="79.99999999997392" ry="40.00000000000002" fill="rgb(54,171,214)" stroke="#36ABD6" stroke-width="2" stroke-linecap="round" stroke-linejoin="round"/></g><g transform="translate(757.1599999999738, 362.4) rotate(0, 62.84, 27.6)" width="125.68" height="55.2"><text text-decoration="none" x="8.840000000000003" fill="#ffffff" font-size="10pt" font-family="noto_regular"  y="12">View&#160;</text><text text-decoration="none" x="39.84" fill="#ffffff" font-size="10pt" font-family="noto_regular"  y="12">availability&#160;</text><text text-decoration="none" x="101.84" fill="#ffffff" font-size="10pt" font-family="noto_regular"  y="12">of&#160;</text><text text-decoration="none" x="116.84" fill="#ffffff" font-size="10pt" font-family="noto_regular"  y="12"></text><text text-decoration="none" x="6.840000000000003" fill="#ffffff" font-size="10pt" font-family="noto_regular"  y="28">rooms&#160;</text><text text-decoration="none" x="45.84" fill="#ffffff" font-size="10pt" font-family="noto_regular"  y="28">according&#160;</text><text text-decoration="none" x="104.84" fill="#ffffff" font-size="10pt" font-family="noto_regular"  y="28">to&#160;</text><text text-decoration="none" x="118.84" fill="#ffffff" font-size="10pt" font-family="noto_regular"  y="28"></text><text text-decoration="none" x="46.84" fill="#ffffff" font-size="10pt" font-family="noto_regular"  y="47">dates</text><text text-decoration="none" x="78.84" fill="#4b4b4b" font-size="10pt" font-family="noto_regular"  y="47"></text></g></g><g id="4gpKls0ILe1"><g><path d="M 435,418 L 740,210" fill="none" stroke="#4d4c4c" stroke-width="2" stroke-linecap="round" stroke-linejoin="round"/></g></g><g id="BvqcnFzOSEy"><g><path d="M 435,434 L 740,300" fill="none" stroke="#4d4c4c" stroke-width="2" stroke-linecap="round" stroke-linejoin="round"/></g></g><g id="e9BJ4eaDRBm"><g transform="translate(740 440)"><ellipse cx="79.99999999999996" cy="39.9999999999996" rx="79.99999999999996" ry="39.9999999999996" fill="rgb(54,171,214)" stroke="#36ABD6" stroke-width="2" stroke-linecap="round" stroke-linejoin="round"/></g><g transform="translate(766.18, 461.5999999999996) rotate(0, 53.82, 18.4)" width="107.64" height="36.8"><text text-decoration="none" x="5.32" fill="#ffffff" font-size="10pt" font-family="noto_regular"  y="12">View&#160;</text><text text-decoration="none" x="36.32" fill="#ffffff" font-size="10pt" font-family="noto_regular"  y="12">room&#160;</text><text text-decoration="none" x="68.32" fill="#ffffff" font-size="10pt" font-family="noto_regular"  y="12">types&#160;</text><text text-decoration="none" x="102.32" fill="#ffffff" font-size="10pt" font-family="noto_regular"  y="12"></text><text text-decoration="none" x="24.32" fill="#ffffff" font-size="10pt" font-family="noto_regular"  y="31">and&#160;</text><text text-decoration="none" x="48.32" fill="#ffffff" font-size="10pt" font-family="noto_regular"  y="31">prices</text><text text-decoration="none" x="83.32" fill="#4b4b4b" font-size="10pt" font-family="noto_regular"  y="31"></text></g></g><g id="2dnX8TULx4Z"><g transform="translate(740 530)"><ellipse cx="80.00000000002171" cy="40.000000000000114" rx="80.00000000002171" ry="40.000000000000114" fill="rgb(54,171,214)" stroke="#36ABD6" stroke-width="2" stroke-linecap="round" stroke-linejoin="round"/></g><g transform="translate(773.4650000000217, 560.8000000000001) rotate(0, 46.535, 9.2)" width="93.07" height="18.4"><text text-decoration="none" x="3.0349999999999966" fill="#ffffff" font-size="10pt" font-family="noto_regular"  y="15">View&#160;</text><text text-decoration="none" x="34.035" fill="#ffffff" font-size="10pt" font-family="noto_regular"  y="15">discounts</text><text text-decoration="none" x="90.035" fill="#4b4b4b" font-size="10pt" font-family="noto_regular"  y="15"></text></g></g><g id="LJILmjRdqLx"><g transform="translate(740 620)"><ellipse cx="80" cy="40.00000000000065" rx="80" ry="40.00000000000065" fill="rgb(54,171,214)" stroke="#36ABD6" stroke-width="2" stroke-linecap="round" stroke-linejoin="round"/></g><g transform="translate(773.275, 650.8000000000006) rotate(0, 46.725, 9.2)" width="93.45" height="18.4"><text text-decoration="none" x="4.225000000000001" fill="#ffffff" font-size="10pt" font-family="noto_regular"  y="15">Reserve&#160;</text><text text-decoration="none" x="53.225" fill="#ffffff" font-size="10pt" font-family="noto_regular"  y="15">rooms</text><text text-decoration="none" x="89.225" fill="#4b4b4b" font-size="10pt" font-family="noto_regular"  y="15"></text></g></g><g id="Rb6b40lBfpy"><g transform="translate(740 710)"><ellipse cx="80" cy="39.99999999999956" rx="80" ry="39.99999999999956" fill="rgb(54,171,214)" stroke="#36ABD6" stroke-width="2" stroke-linecap="round" stroke-linejoin="round"/></g><g transform="translate(757.12, 731.5999999999996) rotate(0, 62.88, 18.4)" width="125.76" height="36.8"><text text-decoration="none" x="6.380000000000003" fill="#ffffff" font-size="10pt" font-family="noto_regular"  y="12">Make&#160;</text><text text-decoration="none" x="41.38" fill="#ffffff" font-size="10pt" font-family="noto_regular"  y="12">a&#160;</text><text text-decoration="none" x="51.38" fill="#ffffff" font-size="10pt" font-family="noto_regular"  y="12">payment&#160;</text><text text-decoration="none" x="103.38" fill="#ffffff" font-size="10pt" font-family="noto_regular"  y="12">for</text><text text-decoration="none" x="119.38" fill="#ffffff" font-size="10pt" font-family="noto_regular"  y="12"></text><text text-decoration="none" x="44.88" fill="#ffffff" font-size="10pt" font-family="noto_regular"  y="31">rooms</text><text text-decoration="none" x="80.88" fill="#4b4b4b" font-size="10pt" font-family="noto_regular"  y="31"></text></g></g><g id="KH6YLpeZcMa"><g><path d="M 435,450 L 740,390" fill="none" stroke="#4d4c4c" stroke-width="2" stroke-linecap="round" stroke-linejoin="round"/></g></g><g id="ahBSB24msvI"><g><path d="M 435,466 L 740,480" fill="none" stroke="#4d4c4c" stroke-width="2" stroke-linecap="round" stroke-linejoin="round"/></g></g><g id="Kw2MVJEdiLL"><g><path d="M 435,482 L 740,570" fill="none" stroke="#4d4c4c" stroke-width="2" stroke-linecap="round" stroke-linejoin="round"/></g></g><g id="TGf60wBTbP4"><g><path d="M 435,498 L 740,660" fill="none" stroke="#4d4c4c" stroke-width="2" stroke-linecap="round" stroke-linejoin="round"/></g></g><g id="95UD0dwS8PW"><g><path d="M 435,498 L 740,750" fill="none" stroke="#4d4c4c" stroke-width="2" stroke-linecap="round" stroke-linejoin="round"/></g></g><g id="LIdUKVlbbLr"><g transform="translate(740 800)"><ellipse cx="79.99999999994782" cy="40.00000000000003" rx="79.99999999994782" ry="40.00000000000003" fill="rgb(54,171,214)" stroke="#36ABD6" stroke-width="2" stroke-linecap="round" stroke-linejoin="round"/></g><g transform="translate(761.9399999999478, 812.4) rotate(0, 58.06, 27.6)" width="116.12" height="55.2"><text text-decoration="none" x="18.560000000000002" fill="#ffffff" font-size="10pt" font-family="noto_regular"  y="12">Update&#160;</text><text text-decoration="none" x="61.56" fill="#ffffff" font-size="10pt" font-family="noto_regular"  y="12">rooms</text><text text-decoration="none" x="97.56" fill="#ffffff" font-size="10pt" font-family="noto_regular"  y="12"></text><text text-decoration="none" x="25.560000000000002" fill="#ffffff" font-size="10pt" font-family="noto_regular"  y="28">availability&#160;</text><text text-decoration="none" x="90.56" fill="#ffffff" font-size="10pt" font-family="noto_regular"  y="28"></text><text text-decoration="none" x="5.560000000000002" fill="#ffffff" font-size="10pt" font-family="noto_regular"  y="47">according&#160;</text><text text-decoration="none" x="64.56" fill="#ffffff" font-size="10pt" font-family="noto_regular"  y="47">to&#160;</text><text text-decoration="none" x="78.56" fill="#ffffff" font-size="10pt" font-family="noto_regular"  y="47">dates</text><text text-decoration="none" x="110.56" fill="#4b4b4b" font-size="10pt" font-family="noto_regular"  y="47"></text></g></g><g id="7trYplsp4SO"><g transform="translate(740 890)"><ellipse cx="79.999999999995" cy="39.99999999999995" rx="79.999999999995" ry="39.99999999999995" fill="rgb(54,171,214)" stroke="#36ABD6" stroke-width="2" stroke-linecap="round" stroke-linejoin="round"/></g><g transform="translate(754.589999999995, 920.8) rotate(0, 65.41, 9.2)" width="130.82" height="18.4"><text text-decoration="none" x="6.909999999999997" fill="#ffffff" font-size="10pt" font-family="noto_regular"  y="15">Update&#160;</text><text text-decoration="none" x="49.91" fill="#ffffff" font-size="10pt" font-family="noto_regular"  y="15">rooms&#160;</text><text text-decoration="none" x="88.91" fill="#ffffff" font-size="10pt" font-family="noto_regular"  y="15">prices</text><text text-decoration="none" x="123.91" fill="#4b4b4b" font-size="10pt" font-family="noto_regular"  y="15"></text></g></g><g id="lvKUkoCPLeB"><g transform="translate(740 980)"><ellipse cx="79.99999999998215" cy="40.00000000000002" rx="79.99999999998215" ry="40.00000000000002" fill="rgb(54,171,214)" stroke="#36ABD6" stroke-width="2" stroke-linecap="round" stroke-linejoin="round"/></g><g transform="translate(746.0399999999821, 1010.8) rotate(0, 73.96, 9.2)" width="147.92" height="18.4"><text text-decoration="none" x="7.459999999999994" fill="#ffffff" font-size="10pt" font-family="noto_regular"  y="15">Update&#160;</text><text text-decoration="none" x="50.459999999999994" fill="#ffffff" font-size="10pt" font-family="noto_regular"  y="15">discount&#160;</text><text text-decoration="none" x="102.46" fill="#ffffff" font-size="10pt" font-family="noto_regular"  y="15">details</text><text text-decoration="none" x="140.45999999999998" fill="#4b4b4b" font-size="10pt" font-family="noto_regular"  y="15"></text></g></g><g id="17HKhvfhbT3"><g transform="translate(1270 879.9999999999998)"><ellipse cx="20" cy="10" rx="10" ry="10" fill="rgb(77,76,76)" stroke="#4d4c4c" stroke-width="2" stroke-linecap="round" stroke-linejoin="round"/><path d="M 20,20 L 20,48 L 40,80 M 20,48 L 0,80 M 2,30 L 38,30" fill="none" stroke="#4d4c4c" stroke-width="2" stroke-linecap="round" stroke-linejoin="round"/><rect x="0" y="0" width="40" height="80" fill="rgba(255,255,255,0.01)" stroke="rgba(255,255,255,0.01)" stroke-width="2" stroke-linecap="round" stroke-linejoin="round"/></g><g transform="translate(1245.19, 969.9999999999998) rotate(0, 44.81, 0)" width="89.62" height="18.4"><text text-decoration="none" x="2.8100000000000023" fill="#36abd6" font-weight="bold" font-size="10pt" font-family="noto_regular"  y="15">System&#160;</text><text text-decoration="none" x="49.81" fill="#36abd6" font-weight="bold" font-size="10pt" font-family="noto_regular"  y="15">Admin</text><text text-decoration="none" x="86.81" fill="#4b4b4b" font-size="10pt" font-family="noto_regular"  y="15"></text></g></g><g id="9cDBJ1QmMuR"><g><path d="M 1255,904 L 900,840" fill="none" stroke="#4d4c4c" stroke-width="2" stroke-linecap="round" stroke-linejoin="round"/></g></g><g id="vWLJLvc7b9m"><g><path d="M 1255,920 L 900,930" fill="none" stroke="#4d4c4c" stroke-width="2" stroke-linecap="round" stroke-linejoin="round"/></g></g><g id="ZgizNbpfhKL"><g><path d="M 1255,936 L 900,1020" fill="none" stroke="#4d4c4c" stroke-width="2" stroke-linecap="round" stroke-linejoin="round"/></g></g><g id="YSFQ6eJzJgc"><g transform="translate(999.9999999999999 440)"><ellipse cx="79.99999999999977" cy="40.000000000000185" rx="79.99999999999977" ry="40.000000000000185" fill="rgb(54,171,214)" stroke="#36ABD6" stroke-width="2" stroke-linecap="round" stroke-linejoin="round"/></g><g transform="translate(1062.5349999999999, 470.8000000000002) rotate(0, 17.465, 9.2)" width="34.93" height="18.4"><text text-decoration="none" x="1.9649999999999999" fill="#ffffff" font-size="10pt" font-family="noto_regular"  y="15">Login</text><text text-decoration="none" x="32.965" fill="#4b4b4b" font-size="10pt" font-family="noto_regular"  y="15"></text></g></g><g id="IIUqgY6h0tX"><g transform="translate(999.9999999999999 709.9999999999999)"><ellipse cx="79.99999999999996" cy="40.000000000000014" rx="79.99999999999996" ry="40.000000000000014" fill="rgb(54,171,214)" stroke="#36ABD6" stroke-width="2" stroke-linecap="round" stroke-linejoin="round"/></g><g transform="translate(1019.6199999999998, 731.5999999999999) rotate(0, 60.38, 18.4)" width="120.76" height="36.8"><text text-decoration="none" x="6.380000000000003" fill="#ffffff" font-size="10pt" font-family="noto_regular"  y="12">Generate&#160;</text><text text-decoration="none" x="61.38" fill="#ffffff" font-size="10pt" font-family="noto_regular"  y="12">invoice&#160;</text><text text-decoration="none" x="104.38" fill="#ffffff" font-size="10pt" font-family="noto_regular"  y="12">in</text><text text-decoration="none" x="114.38" fill="#ffffff" font-size="10pt" font-family="noto_regular"  y="12"></text><text text-decoration="none" x="27.880000000000003" fill="#ffffff" font-size="10pt" font-family="noto_regular"  y="31">PDF&#160;</text><text text-decoration="none" x="54.88" fill="#ffffff" font-size="10pt" font-family="noto_regular"  y="31">format</text><text text-decoration="none" x="92.88" fill="#4b4b4b" font-size="10pt" font-family="noto_regular"  y="31"></text></g></g><g id="mnaqiz4CTKK"><mask id="ce49c" x="878" y="303" width="162" height="162" maskUnits="userSpaceOnUse"><rect x="878" y="303" width="162" height="162" fill="white" /><rect x="918.58" y="371.8" width="80.84" height="24.4" fill="black" /></mask><g mask="url(#ce49c)"><path d="M 892,317 L 1026,451" fill="none" stroke="#36abd6" stroke-width="2" stroke-linecap="round" stroke-linejoin="round" stroke-dasharray="3 3"/><path d="M 1026,451 L 1025.6751929057189,441.4867997038597 M 1026,451 L 1016.4867997038597,450.6751929057188 Z" fill="rgb(255,255,255)" stroke="#36abd6" stroke-width="2" stroke-linecap="round" stroke-linejoin="round"/></g><g transform="translate(921.58, 374.8)" width="74.84" height="18.4"><text text-decoration="none" x="2.9200000000000017" fill="#36abd6" font-size="10pt" font-family="noto_regular"  y="15">&#x3C;&#x3C;include&#x3E;&#x3E;</text><text text-decoration="none" x="71.92" fill="#4b4b4b" font-size="10pt" font-family="noto_regular"  y="15"></text></g></g><g id="kP6QGdcXCtB"><mask id="e4238" x="878" y="393" width="144" height="84" maskUnits="userSpaceOnUse"><rect x="878" y="393" width="144" height="84" fill="white" /><rect x="909.58" y="422.8" width="80.84" height="24.4" fill="black" /></mask><g mask="url(#e4238)"><path d="M 892,407 L 1008,463" fill="none" stroke="#36abd6" stroke-width="2" stroke-linecap="round" stroke-linejoin="round" stroke-dasharray="3 3"/><path d="M 1008,463 L 1004.5599337876172,454.1246169672852 M 1008,463 L 998.9106521412234,465.82670037767235 Z" fill="rgb(255,255,255)" stroke="#36abd6" stroke-width="2" stroke-linecap="round" stroke-linejoin="round"/></g><g transform="translate(912.58, 425.8)" width="74.84" height="18.4"><text text-decoration="none" x="2.9200000000000017" fill="#36abd6" font-size="10pt" font-family="noto_regular"  y="15">&#x3C;&#x3C;include&#x3E;&#x3E;</text><text text-decoration="none" x="71.92" fill="#4b4b4b" font-size="10pt" font-family="noto_regular"  y="15"></text></g></g><g id="hvHKqhl9NRu"><mask id="854e1" x="886" y="466" width="128" height="28" maskUnits="userSpaceOnUse"><rect x="886" y="466" width="128" height="28" fill="white" /><rect x="909.58" y="467.8" width="80.84" height="24.4" fill="black" /></mask><g mask="url(#854e1)"><path d="M 900,480 L 1000,480" fill="none" stroke="#36abd6" stroke-width="2" stroke-linecap="round" stroke-linejoin="round" stroke-dasharray="3 3"/><path d="M 1000,480 L 993.0434782608696,473.50282485875704 M 1000,480 L 993.0434782608696,486.49717514124296 Z" fill="rgb(255,255,255)" stroke="#36abd6" stroke-width="2" stroke-linecap="round" stroke-linejoin="round"/></g><g transform="translate(912.58, 470.8)" width="74.84" height="18.4"><text text-decoration="none" x="2.9200000000000017" fill="#36abd6" font-size="10pt" font-family="noto_regular"  y="15">&#x3C;&#x3C;include&#x3E;&#x3E;</text><text text-decoration="none" x="71.92" fill="#4b4b4b" font-size="10pt" font-family="noto_regular"  y="15"></text></g></g><g id="ZdzDA6VNPjM"><mask id="5042b" x="886" y="495" width="154" height="89" maskUnits="userSpaceOnUse"><rect x="886" y="495" width="154" height="89" fill="white" /><rect x="922.58" y="527.3" width="80.84" height="24.4" fill="black" /></mask><g mask="url(#5042b)"><path d="M 900,570 L 1026,509" fill="none" stroke="#36abd6" stroke-width="2" stroke-linecap="round" stroke-linejoin="round" stroke-dasharray="3 3"/><path d="M 1026,509 L 1016.9075225294587,506.18338270780765 M 1026,509 L 1022.569779933722,517.8791930838271 Z" fill="rgb(255,255,255)" stroke="#36abd6" stroke-width="2" stroke-linecap="round" stroke-linejoin="round"/></g><g transform="translate(925.58, 530.3)" width="74.84" height="18.4"><text text-decoration="none" x="2.9200000000000017" fill="#36abd6" font-size="10pt" font-family="noto_regular"  y="15">&#x3C;&#x3C;include&#x3E;&#x3E;</text><text text-decoration="none" x="71.92" fill="#4b4b4b" font-size="10pt" font-family="noto_regular"  y="15"></text></g></g><g id="Ot39sTLAv1f"><mask id="2e2e2" x="886" y="503" width="176" height="171" maskUnits="userSpaceOnUse"><rect x="886" y="503" width="176" height="171" fill="white" /><rect x="933.58" y="576.3" width="80.84" height="24.4" fill="black" /></mask><g mask="url(#2e2e2)"><path d="M 900,660 L 1048,517" fill="none" stroke="#36abd6" stroke-width="2" stroke-linecap="round" stroke-linejoin="round" stroke-dasharray="3 3"/><path d="M 1048,517 L 1038.482738602968,517.1679732822379 M 1048,517 L 1047.5184473278343,526.5065549252561 Z" fill="rgb(255,255,255)" stroke="#36abd6" stroke-width="2" stroke-linecap="round" stroke-linejoin="round"/></g><g transform="translate(936.58, 579.3)" width="74.84" height="18.4"><text text-decoration="none" x="2.9200000000000017" fill="#36abd6" font-size="10pt" font-family="noto_regular"  y="15">&#x3C;&#x3C;include&#x3E;&#x3E;</text><text text-decoration="none" x="71.92" fill="#4b4b4b" font-size="10pt" font-family="noto_regular"  y="15"></text></g></g><g id="25pQdA0FyuY"><mask id="9790a" x="878" y="506" width="216" height="241" maskUnits="userSpaceOnUse"><rect x="878" y="506" width="216" height="241" fill="white" /><rect x="945.58" y="614.3" width="80.84" height="24.4" fill="black" /></mask><g mask="url(#9790a)"><path d="M 892,733 L 1080,520" fill="none" stroke="#36abd6" stroke-width="2" stroke-linecap="round" stroke-linejoin="round" stroke-dasharray="3 3"/><path d="M 1080,520 L 1070.5254444778136,520.9161207234788 M 1080,520 L 1080.2677653241478,529.5149766817457 Z" fill="rgb(255,255,255)" stroke="#36abd6" stroke-width="2" stroke-linecap="round" stroke-linejoin="round"/></g><g transform="translate(948.58, 617.3)" width="74.84" height="18.4"><text text-decoration="none" x="2.9200000000000017" fill="#36abd6" font-size="10pt" font-family="noto_regular"  y="15">&#x3C;&#x3C;include&#x3E;&#x3E;</text><text text-decoration="none" x="71.92" fill="#4b4b4b" font-size="10pt" font-family="noto_regular"  y="15"></text></g></g><g id="fPpHt6GZhHG"><mask id="11e4d" x="886" y="736" width="128" height="28" maskUnits="userSpaceOnUse"><rect x="886" y="736" width="128" height="28" fill="white" /><rect x="910.645" y="737.8" width="78.71" height="24.4" fill="black" /></mask><g mask="url(#11e4d)"><path d="M 1000,750 L 900,750" fill="none" stroke="#36abd6" stroke-width="2" stroke-linecap="round" stroke-linejoin="round" stroke-dasharray="3 3"/><path d="M 900,750 L 906.9565217391304,756.4971751412429 M 900,750 L 906.9565217391305,743.5028248587571 Z" fill="rgb(255,255,255)" stroke="#36abd6" stroke-width="2" stroke-linecap="round" stroke-linejoin="round"/></g><g transform="translate(913.645, 740.8)" width="72.71" height="18.4"><text text-decoration="none" x="3.354999999999997" fill="#36abd6" font-size="10pt" font-family="noto_regular"  y="15">&#x3C;&#x3C;extend&#x3E;&#x3E;</text><text text-decoration="none" x="69.35499999999999" fill="#4b4b4b" font-size="10pt" font-family="noto_regular"  y="15"></text></g></g></svg>